<svg height="2782" width="720" xmlns="http://www.w3.org/2000/svg">
<rect height="2782" fill="#555" width="720"></rect>
<text fill="#7f7" font-family="Courier New" font-size="12" xml:space="preserve">
<tspan x="10" y="26">22 megabytes installed</tspan>
<tspan x="10" y="42"></tspan>
<tspan x="10" y="58">node_modules</tspan>
<tspan x="10" y="74">└─┬ social-login@0.2.8 </tspan>
<tspan x="10" y="90">  ├─┬ passport-amazon@1.0.0 </tspan>
<tspan x="10" y="106">  │ └─┬ passport-oauth2@1.4.0 </tspan>
<tspan x="10" y="122">  │   ├── oauth@0.9.15 </tspan>
<tspan x="10" y="138">  │   ├── passport-strategy@1.0.0 </tspan>
<tspan x="10" y="154">  │   ├── uid2@0.0.3 </tspan>
<tspan x="10" y="170">  │   └── utils-merge@1.0.0 </tspan>
<tspan x="10" y="186">  ├─┬ passport-dropbox-oauth2@1.1.0 </tspan>
<tspan x="10" y="202">  │ ├── passport-oauth@1.0.0 </tspan>
<tspan x="10" y="218">  │ └── pkginfo@0.2.3 </tspan>
<tspan x="10" y="234">  ├── passport-facebook@2.1.1 </tspan>
<tspan x="10" y="250">  ├── passport-foursquare@1.0.0 </tspan>
<tspan x="10" y="266">  ├─┬ passport-google@0.3.0 </tspan>
<tspan x="10" y="282">  │ └─┬ passport-openid@0.3.1 </tspan>
<tspan x="10" y="298">  │   ├── openid@0.5.13 </tspan>
<tspan x="10" y="314">  │   └─┬ passport@0.1.18 </tspan>
<tspan x="10" y="330">  │     └── pause@0.0.1 </tspan>
<tspan x="10" y="346">  ├── passport-imgur@0.0.3 </tspan>
<tspan x="10" y="362">  ├── passport-instagram@1.0.0 </tspan>
<tspan x="10" y="378">  ├─┬ passport-linkedin@1.0.0 </tspan>
<tspan x="10" y="394">  │ └── passport-oauth1@1.1.0 </tspan>
<tspan x="10" y="410">  ├── passport-meetup@1.0.0 </tspan>
<tspan x="10" y="426">  ├─┬ passport-tumblr@0.1.2 </tspan>
<tspan x="10" y="442">  │ └── passport-oauth@0.1.15 </tspan>
<tspan x="10" y="458">  ├─┬ passport-twitter@1.0.4 </tspan>
<tspan x="10" y="474">  │ └─┬ xtraverse@0.1.0 </tspan>
<tspan x="10" y="490">  │   └── xmldom@0.1.27 </tspan>
<tspan x="10" y="506">  ├── passport-wordpress@0.0.4 </tspan>
<tspan x="10" y="522">  ├─┬ passport-youtube@0.0.6 </tspan>
<tspan x="10" y="538">  │ └── passport-oauth@0.1.14 </tspan>
<tspan x="10" y="554">  ├─┬ toolset@1.5.17 </tspan>
<tspan x="10" y="570">  │ ├─┬ archiver@1.3.0 </tspan>
<tspan x="10" y="586">  │ │ ├─┬ archiver-utils@1.3.0 </tspan>
<tspan x="10" y="602">  │ │ │ ├── lazystream@1.0.0 </tspan>
<tspan x="10" y="618">  │ │ │ └─┬ normalize-path@2.1.1 </tspan>
<tspan x="10" y="634">  │ │ │   └── remove-trailing-separator@1.0.1 </tspan>
<tspan x="10" y="650">  │ │ ├── async@2.3.0 </tspan>
<tspan x="10" y="666">  │ │ ├── buffer-crc32@0.2.13 </tspan>
<tspan x="10" y="682">  │ │ ├─┬ glob@7.1.1 </tspan>
<tspan x="10" y="698">  │ │ │ ├── fs.realpath@1.0.0 </tspan>
<tspan x="10" y="714">  │ │ │ ├─┬ inflight@1.0.6 </tspan>
<tspan x="10" y="730">  │ │ │ │ └── wrappy@1.0.2 </tspan>
<tspan x="10" y="746">  │ │ │ ├─┬ minimatch@3.0.3 </tspan>
<tspan x="10" y="762">  │ │ │ │ └─┬ brace-expansion@1.1.7 </tspan>
<tspan x="10" y="778">  │ │ │ │   ├── balanced-match@0.4.2 </tspan>
<tspan x="10" y="794">  │ │ │ │   └── concat-map@0.0.1 </tspan>
<tspan x="10" y="810">  │ │ │ ├── once@1.4.0 </tspan>
<tspan x="10" y="826">  │ │ │ └── path-is-absolute@1.0.1 </tspan>
<tspan x="10" y="842">  │ │ ├── lodash@4.17.4 </tspan>
<tspan x="10" y="858">  │ │ ├─┬ readable-stream@2.2.9 </tspan>
<tspan x="10" y="874">  │ │ │ ├── buffer-shims@1.0.0 </tspan>
<tspan x="10" y="890">  │ │ │ ├── core-util-is@1.0.2 </tspan>
<tspan x="10" y="906">  │ │ │ ├── isarray@1.0.0 </tspan>
<tspan x="10" y="922">  │ │ │ ├── process-nextick-args@1.0.7 </tspan>
<tspan x="10" y="938">  │ │ │ ├── string_decoder@1.0.0 </tspan>
<tspan x="10" y="954">  │ │ │ └── util-deprecate@1.0.2 </tspan>
<tspan x="10" y="970">  │ │ ├─┬ tar-stream@1.5.2 </tspan>
<tspan x="10" y="986">  │ │ │ ├── bl@1.2.0 </tspan>
<tspan x="10" y="1002">  │ │ │ ├── end-of-stream@1.4.0 </tspan>
<tspan x="10" y="1018">  │ │ │ └── xtend@4.0.1 </tspan>
<tspan x="10" y="1034">  │ │ ├── walkdir@0.0.11 </tspan>
<tspan x="10" y="1050">  │ │ └─┬ zip-stream@1.1.1 </tspan>
<tspan x="10" y="1066">  │ │   └─┬ compress-commons@1.2.0 </tspan>
<tspan x="10" y="1082">  │ │     └─┬ crc32-stream@2.0.0 </tspan>
<tspan x="10" y="1098">  │ │       └── crc@3.4.4 </tspan>
<tspan x="10" y="1114">  │ ├─┬ fstream@1.0.11 </tspan>
<tspan x="10" y="1130">  │ │ ├── graceful-fs@4.1.11 </tspan>
<tspan x="10" y="1146">  │ │ ├── inherits@2.0.3 </tspan>
<tspan x="10" y="1162">  │ │ ├─┬ mkdirp@0.5.1 </tspan>
<tspan x="10" y="1178">  │ │ │ └── minimist@0.0.8 </tspan>
<tspan x="10" y="1194">  │ │ └── rimraf@2.6.1 </tspan>
<tspan x="10" y="1210">  │ ├─┬ mongodb@2.2.26 </tspan>
<tspan x="10" y="1226">  │ │ ├── es6-promise@3.2.1 </tspan>
<tspan x="10" y="1242">  │ │ ├─┬ mongodb-core@2.1.10 </tspan>
<tspan x="10" y="1258">  │ │ │ ├── bson@1.0.4 </tspan>
<tspan x="10" y="1274">  │ │ │ └─┬ require_optional@1.0.0 </tspan>
<tspan x="10" y="1290">  │ │ │   ├── resolve-from@2.0.0 </tspan>
<tspan x="10" y="1306">  │ │ │   └── semver@5.3.0 </tspan>
<tspan x="10" y="1322">  │ │ └── readable-stream@2.2.7 </tspan>
<tspan x="10" y="1338">  │ ├─┬ path@0.12.7 </tspan>
<tspan x="10" y="1354">  │ │ ├── process@0.11.9 </tspan>
<tspan x="10" y="1370">  │ │ └─┬ util@0.10.3 </tspan>
<tspan x="10" y="1386">  │ │   └── inherits@2.0.1 </tspan>
<tspan x="10" y="1402">  │ ├─┬ request@2.81.0 </tspan>
<tspan x="10" y="1418">  │ │ ├── aws-sign2@0.6.0 </tspan>
<tspan x="10" y="1434">  │ │ ├── aws4@1.6.0 </tspan>
<tspan x="10" y="1450">  │ │ ├── caseless@0.12.0 </tspan>
<tspan x="10" y="1466">  │ │ ├─┬ combined-stream@1.0.5 </tspan>
<tspan x="10" y="1482">  │ │ │ └── delayed-stream@1.0.0 </tspan>
<tspan x="10" y="1498">  │ │ ├── extend@3.0.0 </tspan>
<tspan x="10" y="1514">  │ │ ├── forever-agent@0.6.1 </tspan>
<tspan x="10" y="1530">  │ │ ├─┬ form-data@2.1.4 </tspan>
<tspan x="10" y="1546">  │ │ │ └── asynckit@0.4.0 </tspan>
<tspan x="10" y="1562">  │ │ ├─┬ har-validator@4.2.1 </tspan>
<tspan x="10" y="1578">  │ │ │ ├─┬ ajv@4.11.7 </tspan>
<tspan x="10" y="1594">  │ │ │ │ ├── co@4.6.0 </tspan>
<tspan x="10" y="1610">  │ │ │ │ └─┬ json-stable-stringify@1.0.1 </tspan>
<tspan x="10" y="1626">  │ │ │ │   └── jsonify@0.0.0 </tspan>
<tspan x="10" y="1642">  │ │ │ └── har-schema@1.0.5 </tspan>
<tspan x="10" y="1658">  │ │ ├─┬ hawk@3.1.3 </tspan>
<tspan x="10" y="1674">  │ │ │ ├── boom@2.10.1 </tspan>
<tspan x="10" y="1690">  │ │ │ ├── cryptiles@2.0.5 </tspan>
<tspan x="10" y="1706">  │ │ │ ├── hoek@2.16.3 </tspan>
<tspan x="10" y="1722">  │ │ │ └── sntp@1.0.9 </tspan>
<tspan x="10" y="1738">  │ │ ├─┬ http-signature@1.1.1 </tspan>
<tspan x="10" y="1754">  │ │ │ ├── assert-plus@0.2.0 </tspan>
<tspan x="10" y="1770">  │ │ │ ├─┬ jsprim@1.4.0 </tspan>
<tspan x="10" y="1786">  │ │ │ │ ├── assert-plus@1.0.0 </tspan>
<tspan x="10" y="1802">  │ │ │ │ ├── extsprintf@1.0.2 </tspan>
<tspan x="10" y="1818">  │ │ │ │ ├── json-schema@0.2.3 </tspan>
<tspan x="10" y="1834">  │ │ │ │ └── verror@1.3.6 </tspan>
<tspan x="10" y="1850">  │ │ │ └─┬ sshpk@1.13.0 </tspan>
<tspan x="10" y="1866">  │ │ │   ├── asn1@0.2.3 </tspan>
<tspan x="10" y="1882">  │ │ │   ├── assert-plus@1.0.0 </tspan>
<tspan x="10" y="1898">  │ │ │   ├── bcrypt-pbkdf@1.0.1 </tspan>
<tspan x="10" y="1914">  │ │ │   ├─┬ dashdash@1.14.1 </tspan>
<tspan x="10" y="1930">  │ │ │   │ └── assert-plus@1.0.0 </tspan>
<tspan x="10" y="1946">  │ │ │   ├── ecc-jsbn@0.1.1 </tspan>
<tspan x="10" y="1962">  │ │ │   ├─┬ getpass@0.1.6 </tspan>
<tspan x="10" y="1978">  │ │ │   │ └── assert-plus@1.0.0 </tspan>
<tspan x="10" y="1994">  │ │ │   ├── jodid25519@1.0.2 </tspan>
<tspan x="10" y="2010">  │ │ │   ├── jsbn@0.1.1 </tspan>
<tspan x="10" y="2026">  │ │ │   └── tweetnacl@0.14.5 </tspan>
<tspan x="10" y="2042">  │ │ ├── is-typedarray@1.0.0 </tspan>
<tspan x="10" y="2058">  │ │ ├── isstream@0.1.2 </tspan>
<tspan x="10" y="2074">  │ │ ├── json-stringify-safe@5.0.1 </tspan>
<tspan x="10" y="2090">  │ │ ├─┬ mime-types@2.1.15 </tspan>
<tspan x="10" y="2106">  │ │ │ └── mime-db@1.27.0 </tspan>
<tspan x="10" y="2122">  │ │ ├── oauth-sign@0.8.2 </tspan>
<tspan x="10" y="2138">  │ │ ├── performance-now@0.2.0 </tspan>
<tspan x="10" y="2154">  │ │ ├── qs@6.4.0 </tspan>
<tspan x="10" y="2170">  │ │ ├── safe-buffer@5.0.1 </tspan>
<tspan x="10" y="2186">  │ │ ├── stringstream@0.0.5 </tspan>
<tspan x="10" y="2202">  │ │ ├─┬ tough-cookie@2.3.2 </tspan>
<tspan x="10" y="2218">  │ │ │ └── punycode@1.4.1 </tspan>
<tspan x="10" y="2234">  │ │ ├── tunnel-agent@0.6.0 </tspan>
<tspan x="10" y="2250">  │ │ └── uuid@3.0.1 </tspan>
<tspan x="10" y="2266">  │ ├─┬ tar-fixed@0.1.20 </tspan>
<tspan x="10" y="2282">  │ │ ├── block-stream@0.0.9 </tspan>
<tspan x="10" y="2298">  │ │ └─┬ fstream@0.1.31 </tspan>
<tspan x="10" y="2314">  │ │   └─┬ graceful-fs@3.0.11 </tspan>
<tspan x="10" y="2330">  │ │     └── natives@1.1.0 </tspan>
<tspan x="10" y="2346">  │ ├─┬ unzip@0.1.11 </tspan>
<tspan x="10" y="2362">  │ │ ├─┬ binary@0.3.0 </tspan>
<tspan x="10" y="2378">  │ │ │ ├── buffers@0.1.1 </tspan>
<tspan x="10" y="2394">  │ │ │ └─┬ chainsaw@0.1.0 </tspan>
<tspan x="10" y="2410">  │ │ │   └── traverse@0.3.9 </tspan>
<tspan x="10" y="2426">  │ │ ├─┬ fstream@0.1.31 </tspan>
<tspan x="10" y="2442">  │ │ │ └── graceful-fs@3.0.11 </tspan>
<tspan x="10" y="2458">  │ │ ├─┬ match-stream@0.0.2 </tspan>
<tspan x="10" y="2474">  │ │ │ └─┬ readable-stream@1.0.34 </tspan>
<tspan x="10" y="2490">  │ │ │   ├── isarray@0.0.1 </tspan>
<tspan x="10" y="2506">  │ │ │   └── string_decoder@0.10.31 </tspan>
<tspan x="10" y="2522">  │ │ ├─┬ pullstream@0.4.1 </tspan>
<tspan x="10" y="2538">  │ │ │ ├── over@0.0.5 </tspan>
<tspan x="10" y="2554">  │ │ │ ├─┬ readable-stream@1.0.34 </tspan>
<tspan x="10" y="2570">  │ │ │ │ ├── isarray@0.0.1 </tspan>
<tspan x="10" y="2586">  │ │ │ │ └── string_decoder@0.10.31 </tspan>
<tspan x="10" y="2602">  │ │ │ └─┬ slice-stream@1.0.0 </tspan>
<tspan x="10" y="2618">  │ │ │   └─┬ readable-stream@1.0.34 </tspan>
<tspan x="10" y="2634">  │ │ │     ├── isarray@0.0.1 </tspan>
<tspan x="10" y="2650">  │ │ │     └── string_decoder@0.10.31 </tspan>
<tspan x="10" y="2666">  │ │ ├─┬ readable-stream@1.0.34 </tspan>
<tspan x="10" y="2682">  │ │ │ ├── isarray@0.0.1 </tspan>
<tspan x="10" y="2698">  │ │ │ └── string_decoder@0.10.31 </tspan>
<tspan x="10" y="2714">  │ │ └── setimmediate@1.0.5 </tspan>
<tspan x="10" y="2730">  │ └─┬ walk@2.3.9 </tspan>
<tspan x="10" y="2746">  │   └── foreachasync@3.0.0 </tspan>
<tspan x="10" y="2762">  └── underscore@1.8.3</tspan>
</text>
</svg>
